{"title":"Winter's Tale 2014 DVDrip English Klam","uid":10159824,"size":1443888122,"categoryP":"video","categoryS":"movies","magnet":"?xt=urn:btih:29be2f35680d3326ad0659a5646d40356777e459&amp;dn=Winter%27s+Tale+2014+DVDrip+English+Klam&amp;tr=udp%3A%2F%2Ftracker.openbittorrent.com%3A80&amp;tr=udp%3A%2F%2Fopen.demonii.com%3A1337&amp;tr=udp%3A%2F%2Ftracker.coppersurfer.tk%3A6969&amp;tr=udp%3A%2F%2Fexodus.desync.com%3A6969","seeders":4,"leechers":0,"uploader":"Klambake","files":-1,"time":1400234422,"description":"With: Colin Farrell, Jessica Brown Findlay and Russell Crowe\n\nWanneer crimineel Peter Lake de villa van een jonge rijke vrouw insluipt wordt hij betrapt door de beeldschone Beverly. De twee raken langzaam aan de praat en worden verliefd maar dragen beide een groot geheim met zich mee. Tegelijkertijd is Peter op de vlucht voor de gevaarlijke topcrimineel Pearly Soams en lijkt hij over een vreemde gave te beschikken.\n\nA burglar falls for an heiress as she dies in his arms. When he learns that he has the gift of reincarnation, he sets out to save her.\n &lt;a href=&quot;\nhttp://www.imdb.com/title/tt1837709&quot; rel=&quot;nofollow&quot; target=&quot;_NEW&quot;&gt;\nhttp://www.imdb.com/title/tt1837709&lt;/a&gt;\t\n\n--------------------- Dutch Friends 4ever ---------------------\n---------------------------------------------------------------\n- Bezoek ook eens mijn vrienden op: &lt;a href=&quot; http://www.Film-Test.nl&quot; rel=&quot;nofollow&quot; target=&quot;_NEW&quot;&gt; http://www.Film-Test.nl&lt;/a&gt; --\n----- voor mijn Nederlandse Sync. ondertitels ---- en meer ----\n------- http://www.Film-Test.nl ---- Over Films en meer -------\n---------------------------------------------------------------\n\nGeneral:\n\nComplete name                            : Winter's TaleWinter's Tale.avi\nFormat                                   : AVI\nFormat/Info                              : Audio Video Interleave\nFile size                                : 1.34 GiB\nDuration                                 : 1h 53mn\nOverall bit rate                         : 1 696 Kbps\n\nVideo:\n\nFormat                                   : MPEG-4 Visual\nFormat profile                           : Simple@L3\nFormat settings, BVOP                    : No\nFormat settings, QPel                    : No\nFormat settings, GMC                     : No warppoints\nFormat settings, Matrix                  : Default (H.263)\nCodec ID                                 : XVID\nCodec ID/Hint                            : XviD\nDuration                                 : 1h 53mn\nSource duration                          : 1h 53mn\nBit rate                                 : 1 237 Kbps\nWidth                                    : 704 pixels\nHeight                                   : 396 pixels\nDisplay aspect ratio                     : 16:9\nFrame rate                               : 25.000 fps\nColor space                              : YUV\nChroma subsampling                       : 4:2:0\nBit depth                                : 8 bits\nScan type                                : Progressive\nCompression mode                         : Lossy\nBits/(Pixel*Frame)                       : 0.178\nStream size                              : 1 002 MiB (73%)\nWriting library                          : XviD 1.1.2 (UTC 2006-11-01)\n\nAudio:\n\nFormat                                   : AC-3\nFormat/Info                              : Audio Coding 3\nMode extension                           : CM (complete main)\nFormat settings, Endianness              : Big\nCodec ID                                 : 2000\nDuration                                 : 1h 53mn\nBit rate mode                            : Constant\nBit rate                                 : 448 Kbps\nChannel(s)                               : 6 channels\nChannel positions                        : Front: L C R, Side: L R, LFE\nSampling rate                            : 48.0 KHz\nBit depth                                : 16 bits\nCompression mode                         : Lossy\nStream size                              : 363 MiB (26%)\nAlignment                                : Aligned on interleaves\nInterleave, duration                     : 32 ms (0.80 video frame)\nInterleave, preload duration             : 576 ms\n\n\n","torrent":{"xt":"urn:btih:29be2f35680d3326ad0659a5646d40356777e459","amp;dn":"Winter%27s+Tale+2014+DVDrip+English+Klam","amp;tr":["udp%3A%2F%2Ftracker.openbittorrent.com%3A80","udp%3A%2F%2Fopen.demonii.com%3A1337","udp%3A%2F%2Ftracker.coppersurfer.tk%3A6969","udp%3A%2F%2Fexodus.desync.com%3A6969"],"infoHash":"29be2f35680d3326ad0659a5646d40356777e459","infoHashBuffer":{"type":"Buffer","data":[41,190,47,53,104,13,51,38,173,6,89,165,100,109,64,53,103,119,228,89]},"announce":[],"urlList":[]}}